<?xml version="1.0" standalone="no"?>
<!DOCTYPE svg PUBLIC "-//W3C//DTD SVG 20010904//EN"
 "http://www.w3.org/TR/2001/REC-SVG-20010904/DTD/svg10.dtd">
<svg version="1.0" xmlns="http://www.w3.org/2000/svg"
 width="1000.000000pt" height="1000.000000pt" viewBox="0 0 1000.000000 1000.000000"
 preserveAspectRatio="xMidYMid meet">
<metadata>
Created by potrace 1.14, written by Peter Selinger 2001-2017
</metadata>
<g transform="translate(0.000000,1000.000000) scale(0.100000,-0.100000)"
fill="#000000" stroke="none">
<path d="M4900 9990 c0 -6 8 -27 19 -48 10 -20 22 -47 26 -60 7 -23 6 -23 -43
5 -28 15 -53 25 -57 21 -5 -5 -8 -123 -6 -196 1 -9 18 -4 56 16 30 17 55 28
55 26 0 -3 -11 -27 -25 -54 -14 -27 -25 -54 -25 -59 0 -10 196 -15 211 -5 8 4
-30 81 -54 112 -15 19 -1 14 51 -18 27 -16 52 -30 56 -30 3 0 6 52 6 116 l0
116 -55 -31 c-30 -17 -57 -31 -60 -31 -2 0 11 29 31 64 l35 64 -111 1 c-72 1
-110 -2 -110 -9z"/>
<path d="M4934 9593 c-36 -18 -64 -60 -64 -97 l0 -26 -74 5 -74 5 -11 -32 c-6
-17 -14 -55 -17 -84 -5 -42 -11 -53 -28 -58 -52 -14 -63 -8 -101 60 -20 36
-42 67 -49 70 -18 7 -287 -91 -347 -127 -236 -139 -267 -198 -219 -418 12 -52
18 -96 16 -99 -3 -2 -23 0 -46 6 -22 5 -40 8 -40 6 0 -3 25 -38 55 -78 30 -40
55 -80 55 -89 0 -23 48 -57 81 -57 26 0 33 -8 68 -78 54 -107 69 -163 81 -310
16 -178 21 -192 75 -226 25 -16 45 -34 45 -41 0 -37 -87 -455 -89 -426 -1 11
-4 11 -18 0 -9 -8 -14 -9 -10 -3 4 8 -17 13 -65 18 -108 10 -117 13 -112 43
10 53 36 99 79 139 45 42 62 82 29 70 -14 -5 -15 -2 -9 21 23 96 15 124 -53
166 -30 19 -163 77 -176 77 -2 0 -9 -13 -16 -30 -7 -16 -16 -30 -19 -30 -17 0
-40 27 -43 50 -2 20 -9 26 -34 28 -22 2 -34 9 -37 23 -3 10 -16 23 -29 28
l-23 10 23 0 c19 1 21 4 12 20 -14 26 -13 38 2 23 22 -22 28 -13 28 38 0 51
-6 60 -28 38 -15 -15 -16 -3 -2 23 10 18 7 19 -40 19 -54 0 -55 -1 -39 -31 9
-18 7 -19 -15 -13 -24 6 -25 4 -24 -40 1 -51 1 -51 29 -35 19 9 19 9 10 -10
-15 -27 -14 -31 6 -31 14 0 13 -3 -5 -16 -12 -8 -22 -22 -22 -30 0 -10 -12
-14 -40 -14 -31 0 -40 -4 -41 -17 -3 -49 -5 -57 -16 -60 -6 -2 -19 10 -29 26
-22 37 -26 37 -101 9 -124 -46 -178 -100 -170 -173 3 -22 8 -48 12 -57 5 -12
1 -17 -15 -20 -20 -3 -18 -8 27 -53 43 -44 73 -84 73 -98 0 -2 -46 -9 -102
-16 -57 -7 -148 -24 -203 -38 -160 -41 -213 -51 -226 -43 -15 10 16 77 74 164
64 95 66 109 63 438 -1 161 -5 299 -10 306 -4 6 -20 12 -36 12 -59 0 -103 27
-140 86 -67 108 -110 109 -223 4 -78 -73 -113 -95 -169 -105 -42 -8 -139 17
-158 41 -41 48 -99 46 -160 -6 l-35 -30 29 2 c26 3 33 -3 60 -51 23 -41 39
-57 65 -66 l34 -11 -56 -32 c-74 -42 -91 -67 -104 -162 l-5 -35 32 33 c43 43
85 45 193 11 74 -23 150 -24 199 -1 21 9 66 45 102 80 35 34 67 62 71 62 5 0
5 -45 1 -101 -6 -97 -14 -128 -75 -291 -23 -63 -27 -112 -11 -154 6 -14 41
-68 79 -118 38 -50 86 -124 106 -164 102 -197 282 -245 565 -151 96 32 267 62
275 49 2 -3 21 -7 42 -8 45 -3 177 -25 317 -53 112 -22 189 -26 226 -11 14 5
55 24 92 41 64 29 106 39 175 40 46 1 85 40 131 128 50 97 71 159 79 232 3 31
7 63 9 71 1 8 3 37 3 63 l1 48 93 -7 c114 -10 345 -10 454 0 l82 6 6 -47 c24
-183 89 -368 153 -437 37 -39 81 -56 145 -56 42 0 69 -8 132 -40 74 -37 84
-40 164 -40 48 0 102 5 121 10 46 14 164 40 220 48 74 11 310 4 385 -11 39 -9
115 -25 170 -36 159 -34 223 -37 278 -13 73 32 159 127 207 228 23 48 61 113
86 145 79 103 83 146 24 286 -22 52 -42 109 -45 126 -6 32 -13 237 -9 237 2 0
34 -30 71 -66 37 -36 81 -72 98 -81 44 -24 149 -28 221 -9 96 25 115 22 164
-26 l42 -43 -4 52 c-6 60 -55 145 -100 173 -27 16 -28 18 -8 23 19 5 57 71 52
90 -2 5 2 6 7 3 5 -3 11 1 15 9 3 8 17 15 31 15 35 0 31 12 -16 55 -37 33 -46
37 -80 32 -22 -3 -61 -22 -95 -46 -91 -65 -136 -55 -309 73 -131 97 -151 98
-188 13 -28 -61 -53 -81 -146 -110 l-66 -22 1 -300 c1 -377 2 -382 128 -539
16 -20 26 -39 23 -43 -11 -10 -146 16 -224 42 -39 14 -115 32 -170 41 -54 9
-104 20 -110 23 -15 8 41 81 62 81 7 0 15 10 19 23 9 33 8 37 -9 37 -13 0 -14
4 -5 21 20 36 14 96 -11 134 -23 33 -106 85 -136 85 -8 0 -28 7 -44 16 -34 17
-59 6 -59 -27 0 -13 -7 -19 -24 -19 -18 0 -25 8 -32 33 -8 27 -15 32 -39 32
-23 1 -31 6 -33 22 -2 11 -13 25 -25 31 -18 9 -19 11 -4 11 20 1 21 5 6 32
-10 19 -9 19 10 9 12 -6 21 -9 22 -8 0 2 2 20 3 41 2 50 -7 65 -30 46 -16 -13
-16 -12 -5 9 15 28 14 29 -19 32 -59 5 -71 1 -60 -19 15 -28 13 -33 -9 -21
-25 13 -28 6 -21 -50 3 -28 8 -40 13 -32 15 22 27 13 17 -13 -7 -20 -6 -25 5
-25 12 0 10 -5 -5 -20 -11 -11 -20 -24 -20 -30 0 -5 -13 -10 -29 -10 -33 0
-40 -7 -43 -44 -3 -36 -34 -34 -53 5 -18 34 -17 34 -132 -13 -49 -20 -84 -42
-108 -70 -35 -39 -37 -42 -33 -104 3 -53 1 -63 -10 -59 -17 6 35 -66 55 -78
18 -11 57 -74 71 -114 10 -29 9 -33 -6 -33 -9 0 -44 -9 -77 -19 -33 -10 -77
-21 -97 -25 l-37 -7 -36 113 c-29 95 -65 273 -65 328 0 9 15 24 34 34 48 26
51 33 140 376 42 163 86 244 138 256 48 10 110 80 131 145 9 31 17 59 17 64 0
4 -20 5 -45 2 l-45 -7 16 38 c29 67 63 166 68 198 14 80 -90 182 -279 274 -85
41 -258 111 -304 122 -9 2 -22 -21 -39 -66 l-26 -68 -50 6 c-27 3 -54 10 -60
16 -5 5 -11 32 -12 59 -4 83 -12 90 -94 85 l-70 -4 0 34 c0 89 -123 146 -216
99z m-1322 -1588 c4 -19 1 -25 -13 -25 -21 0 -22 4 -13 37 8 28 20 22 26 -12z
m218 0 c0 -18 -4 -23 -15 -19 -17 7 -17 7 -9 28 9 24 24 19 24 -9z"/>
<path d="M1261 8767 c-36 -17 -89 -155 -106 -277 -4 -24 -8 -47 -10 -50 -5 -8
-17 -131 -20 -199 -1 -35 4 -94 11 -130 14 -65 67 -247 83 -286 5 -11 24 -60
41 -110 49 -136 89 -217 211 -428 53 -92 55 -95 37 -77 -17 17 -179 216 -355
436 -130 162 -219 244 -266 244 -41 0 -82 -27 -107 -72 -19 -34 -21 -48 -15
-106 16 -158 70 -364 121 -462 50 -96 229 -365 350 -525 68 -92 289 -307 487
-474 86 -73 157 -135 157 -137 0 -17 -416 294 -496 371 -13 12 -170 154 -194
175 -9 8 -66 60 -126 116 -154 143 -245 223 -274 242 -14 9 -27 19 -30 22 -13
14 -52 30 -71 30 -56 0 -119 -68 -119 -129 0 -53 85 -283 148 -401 74 -138
261 -327 493 -499 90 -67 175 -130 189 -141 14 -11 -38 12 -115 50 -157 77
-431 186 -493 196 -23 3 -52 4 -66 0 -49 -12 -54 -110 -11 -197 41 -80 342
-351 491 -441 88 -54 291 -139 504 -212 l45 -15 -95 4 c-274 14 -379 29 -602
86 -159 40 -192 43 -214 18 -38 -42 -8 -175 50 -227 41 -38 174 -122 255 -163
84 -42 203 -76 436 -124 186 -39 186 -39 337 -39 75 -1 134 -3 131 -6 -6 -6
-71 -22 -273 -65 -220 -47 -375 -72 -494 -79 -164 -10 -201 -26 -219 -95 -12
-49 32 -90 163 -152 131 -63 216 -75 490 -72 135 1 177 6 324 37 94 19 171 34
173 32 2 -2 -36 -19 -84 -39 -48 -19 -119 -50 -158 -67 -120 -55 -245 -100
-387 -140 -163 -46 -191 -60 -207 -99 -10 -24 -10 -34 2 -57 28 -54 103 -109
182 -134 36 -12 240 -16 290 -6 11 2 49 7 85 11 162 18 335 65 548 149 62 24
112 42 112 40 0 -2 -21 -15 -47 -29 -27 -14 -74 -42 -105 -63 -32 -20 -93 -59
-135 -87 -135 -86 -239 -163 -256 -189 -40 -60 30 -111 158 -116 11 0 -5 -9
-35 -20 -95 -32 -208 -176 -266 -340 -23 -65 -27 -94 -31 -220 -4 -169 0 -186
86 -360 53 -108 119 -210 152 -236 8 -7 50 -15 94 -19 96 -8 207 -30 488 -95
117 -27 310 -70 430 -96 119 -27 217 -50 217 -53 0 -4 -19 -18 -43 -33 -23
-15 -70 -52 -105 -83 -35 -30 -67 -55 -71 -55 -4 0 -47 13 -94 30 -48 16 -96
30 -108 30 -48 0 -90 -40 -116 -112 -10 -26 -20 -43 -23 -39 -6 10 -24 14 -57
12 -25 -1 -103 -66 -103 -86 0 -7 -17 -15 -38 -19 -45 -7 -77 -44 -91 -108 -6
-24 -17 -60 -26 -80 -31 -76 -8 -152 55 -178 l32 -13 -89 -32 c-172 -62 -519
-260 -592 -339 -28 -29 -20 -45 33 -74 43 -22 181 -20 227 3 46 23 45 22 23
47 l-19 23 21 -18 c21 -17 24 -17 115 40 219 137 418 239 545 282 l69 23 85
-40 c247 -117 394 -160 549 -163 l81 -1 0 -49 c0 -55 28 -136 89 -257 33 -65
45 -81 55 -73 10 8 16 1 25 -32 17 -56 58 -107 154 -192 43 -38 97 -87 120
-107 23 -21 45 -38 49 -38 3 0 14 19 24 43 l18 43 41 -50 c46 -57 178 -161
216 -171 20 -5 28 -1 38 17 l12 24 40 -38 c22 -21 62 -49 89 -63 44 -22 83
-39 252 -106 l47 -18 -9 24 c-5 14 -16 38 -25 55 -15 28 -12 27 52 -20 112
-81 119 -87 143 -132 l23 -44 47 47 c44 44 161 114 172 103 3 -2 4 -18 2 -34
-4 -36 0 -37 40 -7 53 40 79 51 142 58 91 9 167 48 206 104 l33 47 9 -30 8
-29 62 19 c185 59 248 99 299 188 l33 59 13 -34 12 -35 32 25 c18 15 65 51
104 81 115 85 156 153 188 304 19 90 69 200 91 200 32 0 388 -187 723 -379 68
-39 134 -71 147 -71 29 0 187 46 242 71 174 76 329 239 402 423 49 121 56 208
29 331 -26 115 -110 226 -198 263 -25 11 -143 38 -261 62 -135 27 -219 48
-225 57 -49 71 -142 175 -171 194 -24 14 -54 23 -83 23 -28 1 -57 9 -76 21
-21 15 -47 20 -97 21 -38 1 -71 3 -74 6 -2 3 53 38 123 78 131 75 488 312 578
384 63 50 125 108 125 117 0 3 -27 7 -60 8 -87 2 -117 17 -39 18 145 3 137 -2
252 151 155 207 197 275 223 361 18 60 19 131 1 131 -7 0 -53 -13 -102 -30
-49 -16 -90 -29 -91 -27 -2 1 33 41 76 87 44 47 80 88 80 92 0 17 -126 71
-147 63 -7 -2 -13 1 -13 8 0 8 -3 8 -9 -2 -5 -7 -11 -9 -14 -4 -3 5 -72 8
-154 7 -175 -2 -217 -13 -577 -148 -121 -46 -300 -109 -396 -140 -147 -48
-179 -62 -198 -87 -13 -16 -28 -27 -33 -23 -5 3 -9 2 -8 -3 3 -17 -1 -32 -13
-45 -7 -7 -29 -38 -49 -68 -36 -55 -119 -144 -151 -161 -12 -7 -8 9 18 61 45
91 69 152 110 275 l33 100 12 -33 c6 -18 13 -31 15 -29 2 2 -2 22 -10 44 -12
36 -12 48 5 119 10 43 23 115 29 159 18 133 22 160 24 162 1 1 95 -44 209
-101 152 -76 224 -107 271 -115 113 -20 192 -10 233 29 18 16 20 25 13 52 -12
40 -45 75 -142 150 -43 32 -78 61 -78 63 0 2 39 -14 86 -36 184 -85 409 -141
564 -141 152 0 196 11 226 57 15 23 15 27 1 49 -20 30 -80 78 -172 139 -38 26
-75 50 -81 54 -5 5 -19 13 -30 20 -138 85 -284 177 -284 180 0 2 19 -6 41 -18
110 -56 397 -150 511 -169 119 -18 133 -20 218 -29 47 -5 126 -8 175 -7 79 1
98 5 155 32 102 49 160 117 141 167 -18 46 -47 60 -204 102 -123 33 -213 66
-447 164 -102 43 -192 81 -200 85 -23 10 22 1 190 -35 150 -33 162 -34 375
-33 251 0 302 8 423 64 109 52 168 93 176 125 7 26 -11 72 -37 93 -18 15 -97
29 -215 37 -51 4 -103 8 -115 11 -12 2 -39 6 -62 10 -22 3 -94 16 -160 29 -66
13 -133 27 -150 30 -16 3 -73 16 -125 29 l-95 24 85 0 c61 0 150 14 310 46
293 61 394 88 479 130 79 39 211 124 254 165 59 54 88 159 61 214 -20 37 -46
36 -247 -13 -91 -22 -180 -41 -199 -44 -18 -2 -55 -7 -83 -11 -27 -3 -64 -8
-81 -10 -16 -2 -93 -7 -170 -10 -76 -3 -159 -8 -184 -10 -43 -3 -42 -3 20 16
187 56 393 125 455 152 129 56 261 151 430 309 178 166 206 207 208 305 1 72
-19 94 -82 89 -68 -6 -345 -114 -546 -213 -60 -30 -55 -25 55 58 47 35 90 69
96 74 6 6 39 33 73 60 94 77 295 285 337 351 74 116 184 394 184 466 0 44 -33
92 -78 112 -35 16 -42 16 -73 3 -41 -17 -128 -84 -213 -164 -233 -218 -454
-418 -505 -457 -14 -12 -32 -26 -39 -33 -8 -8 -30 -26 -50 -41 -21 -15 -39
-29 -42 -33 -16 -18 -294 -219 -303 -219 -14 0 -9 4 113 106 362 301 496 447
727 794 158 238 192 310 233 495 38 168 46 264 26 303 -20 38 -76 82 -105 82
-31 0 -88 -39 -148 -101 -59 -61 -51 -51 -249 -299 -81 -102 -150 -187 -153
-190 -3 -3 -24 -27 -46 -54 -61 -76 -69 -84 -49 -51 142 236 226 403 279 555
93 266 116 353 119 450 6 152 -52 449 -103 525 -23 35 -32 40 -70 43 -71 5
-74 0 -168 -288 -76 -232 -240 -603 -346 -782 -24 -40 -46 -80 -50 -88 -4 -8
-17 -31 -28 -50 -135 -226 -149 -246 -178 -258 -53 -23 -79 -51 -154 -165 -81
-122 -148 -191 -360 -369 -67 -57 -68 -57 -87 -38 -32 32 -56 24 -127 -44 -53
-51 -99 -81 -225 -147 -87 -46 -180 -102 -206 -125 -79 -69 -131 -215 -132
-367 0 -63 4 -76 46 -154 27 -49 47 -98 46 -114 0 -16 -22 -70 -49 -120 -67
-128 -158 -205 -261 -224 -44 -7 -52 -1 -42 34 4 15 5 33 1 39 -3 5 -35 13
-71 17 -72 8 -125 26 -184 63 l-40 25 37 18 c20 11 43 30 52 42 20 30 9 68
-19 66 -49 -4 -68 3 -105 40 -116 116 -168 325 -127 504 25 107 75 189 76 125
1 -23 1 -23 15 -3 68 96 76 103 128 116 29 7 66 14 82 15 17 1 73 9 125 18
125 21 163 20 191 -3 20 -16 24 -28 24 -75 0 -63 6 -67 56 -33 44 29 71 82 65
125 -5 36 2 39 47 15 45 -23 138 -20 181 6 18 11 56 46 84 77 34 37 56 53 64
48 11 -6 11 -5 0 8 -26 32 -59 30 -126 -7 -35 -19 -72 -35 -82 -35 -11 0 -53
16 -94 36 -52 25 -85 34 -107 32 -40 -5 -41 -3 -5 16 15 8 53 37 84 64 58 51
82 58 114 31 13 -11 31 -75 25 -94 -7 -27 32 27 63 88 30 58 35 74 30 114 -12
102 -59 146 -183 174 -26 6 -53 19 -63 32 -9 12 -27 22 -40 22 -12 1 -45 16
-72 33 -84 54 -152 54 -451 3 -138 -24 -192 -29 -290 -26 -66 2 -129 5 -140 8
-45 11 -126 19 -140 14 -25 -10 -6 -35 71 -91 l74 -54 -30 -30 c-41 -41 -104
-70 -172 -78 -37 -4 -58 -11 -58 -20 0 -21 54 -53 109 -65 28 -6 51 -12 51
-14 0 -2 -62 -29 -137 -61 -182 -77 -207 -99 -252 -227 -11 -32 -42 -88 -69
-125 -59 -81 -72 -104 -110 -207 -45 -119 -52 -150 -62 -270 -1 -11 -8 9 -15
45 -14 72 -51 235 -65 291 -6 20 -37 74 -71 120 -65 89 -91 141 -88 174 1 11
1 34 0 52 -1 39 -20 51 -196 121 -71 29 -141 59 -155 67 -27 15 -26 16 45 34
23 6 53 24 68 39 l28 29 -73 12 c-75 12 -136 41 -175 83 l-22 23 74 55 c41 30
77 61 80 69 8 19 -15 32 -45 26 -57 -12 -79 -15 -175 -26 -107 -12 -191 -5
-455 41 -130 23 -261 27 -305 10 -16 -6 -44 -22 -62 -36 -17 -13 -43 -24 -57
-24 -14 0 -31 -9 -39 -20 -9 -13 -42 -28 -90 -41 -108 -30 -152 -76 -162 -169
-3 -19 1 -48 7 -65 15 -39 71 -135 79 -135 4 0 10 20 13 45 11 71 65 85 119
31 13 -13 44 -39 69 -58 l45 -35 -33 -1 c-18 -1 -61 -15 -95 -33 -79 -39 -116
-40 -176 0 -51 34 -67 37 -110 20 -26 -10 -27 -11 -7 -19 11 -4 39 -31 63 -58
73 -89 159 -112 261 -72 59 23 69 25 52 8 -40 -40 24 -157 93 -170 17 -3 19 3
16 43 -2 37 3 52 21 73 34 39 25 39 330 -4 98 -14 132 -31 174 -91 36 -50 38
-51 47 -28 8 23 10 22 32 -22 65 -126 74 -289 24 -427 -56 -156 -125 -232
-210 -232 -16 0 -30 -4 -30 -10 -1 -5 -2 -16 -3 -22 -4 -24 15 -48 54 -70 22
-13 40 -25 40 -28 0 -12 -139 -70 -180 -75 -38 -5 -60 -7 -111 -14 -7 -1 -4
-39 5 -69 6 -18 3 -19 -45 -11 -105 17 -203 101 -268 231 -48 97 -51 136 -16
193 58 94 67 123 64 203 -3 88 -27 191 -58 255 -40 83 -105 132 -311 237 -114
58 -148 80 -195 130 -22 23 -52 48 -66 56 -24 12 -30 11 -53 -7 -30 -23 -27
-24 -121 56 -139 119 -256 230 -276 261 -11 19 -25 34 -30 34 -6 0 -8 4 -5 8
3 5 -4 18 -14 30 -11 12 -20 26 -20 32 0 5 -5 10 -11 10 -5 0 -7 5 -4 10 3 6
1 10 -5 10 -6 0 -13 7 -17 16 -11 29 -67 83 -102 97 -30 13 -51 44 -165 239
-155 266 -219 393 -319 628 -73 173 -121 304 -172 472 -15 49 -36 95 -48 106
-26 23 -75 32 -106 19z m2888 -1843 c14 -12 -19 -1 -35 12 -18 14 -18 14 6 3
14 -6 27 -13 29 -15z m2421 -188 c0 -2 -8 -10 -17 -17 -16 -13 -17 -12 -4 4
13 16 21 21 21 13z m-4560 -101 c13 -14 21 -25 18 -25 -2 0 -15 11 -28 25 -13
14 -21 25 -18 25 2 0 15 -11 28 -25z m5843 -95 c-4 -3 -33 -24 -63 -45 l-55
-39 30 33 c17 18 40 37 53 42 13 5 20 13 17 19 -3 6 1 7 10 4 9 -4 13 -10 8
-14z m-635 -292 c-2 -7 -32 -25 -66 -40 -35 -15 -76 -37 -92 -48 -33 -24 -44
-25 -59 -6 -17 20 23 46 69 46 29 0 79 20 148 59 1 0 1 -5 0 -11z m-4541 -4
c-3 -3 -12 -4 -19 -1 -8 3 -5 6 6 6 11 1 17 -2 13 -5z m234 -49 c24 -3 51 -8
61 -11 24 -7 30 -32 9 -43 -13 -8 -27 -4 -54 14 -20 14 -40 25 -44 25 -4 0
-19 10 -33 21 -20 17 -21 18 -4 10 12 -6 41 -13 65 -16z m-621 -196 c13 -7 13
-8 0 -9 -27 0 -60 12 -60 22 0 9 33 3 60 -13z m665 -125 c0 -16 -6 -19 -40
-17 -50 3 -89 12 -82 19 3 3 25 8 48 10 24 3 46 7 48 10 10 10 26 -4 26 -22z
m4180 17 l50 -6 -62 -14 c-67 -15 -93 -11 -93 14 0 16 21 18 105 6z m-50 -247
c17 -9 48 -19 70 -23 32 -7 21 -8 -52 -9 -94 -1 -111 6 -81 36 16 16 27 15 63
-4z m-4108 -9 c3 -9 3 -18 1 -20 -3 -3 -42 -7 -87 -9 -47 -2 -77 1 -69 5 7 5
22 9 33 9 11 0 31 7 45 15 33 19 69 19 77 0z m1153 -69 c0 -2 -8 -10 -17 -17
-16 -13 -17 -12 -4 4 13 16 21 21 21 13z m-40 -30 c0 -2 -8 -10 -17 -17 -16
-13 -17 -12 -4 4 13 16 21 21 21 13z m-40 -29 c0 -2 -19 -21 -42 -42 l-43 -40
40 43 c36 39 45 47 45 39z m2905 -78 c20 -18 34 -34 31 -36 -5 -6 -77 16 -89
27 -9 8 2 40 14 40 4 0 24 -14 44 -31z m-3857 -1 c2 -12 -8 -20 -40 -29 -24
-7 -50 -17 -58 -23 -8 -5 3 9 25 32 40 43 67 50 73 20z m-258 -35 c0 -7 -39
17 -46 28 -3 6 5 3 20 -6 14 -10 26 -19 26 -22z m4237 -34 c-14 -8 -22 -8 -30
0 -8 8 -3 11 19 11 25 -1 27 -2 11 -11z m-4140 -15 c-3 -3 -12 -4 -19 -1 -8 3
-5 6 6 6 11 1 17 -2 13 -5z m3111 0 c12 -4 22 -10 22 -15 0 -15 -37 -10 -50 6
-13 16 -8 18 28 9z m693 -78 l44 -49 -52 26 c-28 15 -54 31 -58 37 -8 14 5 54
14 44 5 -5 28 -31 52 -58z m-3421 19 c0 -6 -26 -26 -57 -44 l-58 -33 25 29
c70 80 74 83 82 71 4 -7 8 -18 8 -23z m530 25 c0 -5 -8 -10 -17 -10 -15 0 -16
2 -3 10 19 12 20 12 20 0z m-1610 -74 c0 -3 -4 -8 -10 -11 -5 -3 -10 -1 -10 4
0 6 5 11 10 11 6 0 10 -2 10 -4z m4290 -67 c27 -52 25 -63 -7 -42 -46 29 -89
83 -77 95 15 16 66 -17 84 -53z m-2980 40 c0 -15 -84 -99 -99 -99 -16 0 14 71
40 93 24 19 59 23 59 6z m3265 -17 c-3 -3 -11 0 -18 7 -9 10 -8 11 6 5 10 -3
15 -9 12 -12z m-3635 -12 c0 -5 -2 -10 -4 -10 -3 0 -8 5 -11 10 -3 6 -1 10 4
10 6 0 11 -4 11 -10z m3066 -60 c8 -25 14 -47 14 -49 0 -8 -52 44 -61 62 -6 9
-7 22 -4 28 14 22 38 2 51 -41z m344 -54 c0 -6 -8 -12 -19 -12 -12 0 -17 6
-14 17 5 19 33 15 33 -5z m-3125 -61 l36 -50 -40 42 c-23 23 -41 48 -41 54 0
15 -1 16 45 -46z m3160 35 c3 -5 2 -10 -4 -10 -5 0 -13 5 -16 10 -3 6 -2 10 4
10 5 0 13 -4 16 -10z m-3921 -31 c-6 -10 -54 -17 -59 -8 -3 4 3 9 12 12 26 6
52 4 47 -4z m921 -19 c-3 -5 -12 -10 -18 -10 -7 0 -6 4 3 10 19 12 23 12 15 0z
m2725 -100 c11 -41 23 -84 26 -95 4 -11 -10 14 -31 55 -20 41 -46 91 -57 110
l-20 35 21 -25 c23 -27 27 -21 10 13 l-11 22 20 -20 c11 -11 30 -54 42 -95z
m48 -145 c-3 -3 -9 2 -12 12 -6 14 -5 15 5 6 7 -7 10 -15 7 -18z m-3468 11 c0
-2 -6 -9 -13 -15 -10 -8 -14 -7 -14 4 0 8 6 15 14 15 7 0 13 -2 13 -4z m-130
-60 c0 -6 -92 -57 -97 -53 -1 2 18 16 45 30 51 28 52 29 52 23z m-110 -61 c0
-6 -56 -35 -67 -35 -4 1 8 9 27 20 39 22 40 22 40 15z m250 -839 c0 -2 -26
-23 -57 -47 -87 -64 -161 -138 -172 -170 -21 -60 55 -100 172 -93 90 6 159 30
329 115 76 38 143 67 148 64 6 -4 10 -21 10 -38 0 -68 49 -300 90 -426 11 -35
18 -66 16 -68 -8 -8 -700 293 -881 384 -117 59 -210 95 -219 86 -3 -4 -6 -2
-6 4 0 6 24 14 53 17 128 17 295 69 418 131 85 42 99 48 99 41z m4618 -1103
c-10 -2 -26 -2 -35 0 -10 3 -2 5 17 5 19 0 27 -2 18 -5z m-1143 -575 c143 -72
168 -86 126 -73 -16 5 -21 4 -17 -4 4 -6 21 -11 37 -11 36 0 31 -14 -10 -28
-25 -9 -33 -6 -65 20 -41 34 -42 44 -2 28 15 -5 25 -6 21 -1 -3 5 -20 13 -38
16 -17 4 -52 22 -77 40 -25 18 -72 47 -105 64 -110 59 -12 19 130 -51z m546
-90 c15 -28 5 -21 -21 15 -15 20 -17 27 -6 18 9 -8 22 -23 27 -33z m-2291
-368 c19 -10 80 -51 135 -91 55 -40 127 -89 160 -109 33 -19 61 -41 62 -48 5
-21 -45 -25 -85 -7 -42 20 -193 132 -267 199 -27 25 -87 66 -132 91 -46 26
-83 48 -83 50 0 5 167 -63 210 -85z m-1812 -50 c-7 -10 -14 -17 -17 -15 -4 4
18 35 25 35 2 0 -1 -9 -8 -20z m-154 -89 c4 -5 3 -11 -1 -14 -5 -2 -2 -2 5 -1
6 2 19 1 28 -3 13 -5 13 -7 2 -14 -24 -15 -45 -9 -56 16 -9 20 -9 25 3 25 7 0
16 -4 19 -9z m1836 -139 c52 -17 121 -36 153 -42 32 -7 57 -13 55 -15 -2 -2
-40 -6 -85 -10 l-82 -7 -82 44 c-45 23 -98 58 -118 76 l-36 32 50 -24 c28 -13
93 -38 145 -54z m257 -74 c-3 -8 -6 -5 -6 6 -1 11 2 17 5 13 3 -3 4 -12 1 -19z
m-321 -79 c-15 -34 -15 -34 -9 -4 7 35 13 48 20 42 2 -3 -3 -20 -11 -38z
m-693 -90 c-11 -11 -15 18 -5 41 4 11 7 8 10 -9 2 -13 0 -27 -5 -32z m-1657
-65 c18 -14 18 -14 -6 -3 -31 14 -36 19 -24 19 6 0 19 -7 30 -16z"/>
<path d="M6512 3205 c0 -11 3 -29 8 -40 11 -25 11 1 0 35 -6 20 -8 21 -8 5z"/>
</g>
</svg>
